<svg width="188" height="48" viewBox="0 0 188 48" fill="none" xmlns="http://www.w3.org/2000/svg">
<mask id="mask0_10_2" style="mask-type:alpha" maskUnits="userSpaceOnUse" x="0" y="0" width="48" height="48">
<circle cx="24" cy="24" r="24" fill="#D9D9D9"/>
</mask>
<g mask="url(#mask0_10_2)">
<g clip-path="url(#clip0_10_2)">
<path d="M30.7031 48.0469C20.4687 48.0469 10.2578 48.0469 0.046875 48.0469C0.046875 32.0469 0.046875 16.0469 0.046875 0.046875C16.0469 0.046875 32.0469 0.046875 48.0469 0.046875C48.0469 16.0469 48.0469 32.0469 48.0469 48.0469C42.2734 48.0469 36.5 48.0469 30.7031 48.0469ZM29.2404 38.1431C29.5074 38.8522 29.779 39.5597 30.0382 40.2717C30.1005 40.4428 30.1687 40.4831 30.3454 40.412C31.4874 39.9525 32.5763 39.3921 33.5927 38.6983C35.9128 37.1145 37.7404 35.0829 39.0691 32.6078C40.0012 30.8714 40.6044 29.0263 40.9035 27.0754C41.0624 26.0393 40.9926 25.0019 41.0172 23.9647C41.0562 22.3183 40.7249 20.7305 40.205 19.1834C39.2154 16.2381 37.5487 13.7359 35.1897 11.7052C32.6872 9.55114 29.8034 8.2282 26.5367 7.72862C25.4624 7.56433 24.3851 7.64346 23.3092 7.60966C22.5068 7.58446 21.7159 7.6757 20.9343 7.83006C16.4501 8.71572 12.8442 10.9933 10.1691 14.7056C8.5166 16.9989 7.49779 19.5604 7.16446 22.3683C7.05181 23.3173 7.11012 24.2861 7.07943 25.2455C7.03954 26.4925 7.25027 27.7076 7.56879 28.9025C8.4888 32.3539 10.3003 35.2503 13.0319 37.5615C14.4566 38.7669 16.031 39.7247 17.7686 40.4122C17.9416 40.4807 18.0263 40.4698 18.0962 40.2735C18.3558 39.5452 18.6255 38.8203 18.9081 38.1006C19.8814 35.6219 20.8617 33.146 21.8382 30.6685C21.8457 30.6493 21.8369 30.6236 21.8355 30.5954C21.6157 30.4949 21.3896 30.4075 21.1786 30.2925C19.8274 29.5556 19.0218 28.3801 18.5379 26.9584C18.0649 25.5688 17.9508 24.1305 18.0463 22.6778C18.2927 18.931 19.966 15.928 22.8503 13.5684C22.907 13.522 22.9742 13.4885 23.0844 13.4186C23.0784 13.5475 23.0769 13.6208 23.0712 13.6938C22.9908 14.7298 23.0372 15.7562 23.3316 16.7591C23.83 18.4565 24.8476 19.6808 26.5284 20.3389C27.8191 20.8443 28.8574 21.6711 29.4811 22.9438C30.0171 24.0374 30.0218 25.1915 29.8242 26.3603C29.5773 27.82 28.8982 29.0238 27.6643 29.8719C27.2933 30.1269 26.8827 30.3272 26.4794 30.531C26.3128 30.6151 26.2759 30.688 26.3694 30.8506C26.4546 30.9987 26.5198 31.1597 26.5821 31.3195C27.4652 33.5822 28.3462 35.8457 29.2404 38.1431Z" fill="#00C9FE"/>
<path d="M29.2341 38.1261C28.3462 35.8457 27.4652 33.5822 26.5821 31.3195C26.5198 31.1597 26.4546 30.9987 26.3694 30.8506C26.2759 30.688 26.3128 30.6151 26.4794 30.531C26.8827 30.3272 27.2933 30.1269 27.6643 29.8719C28.8982 29.0238 29.5773 27.82 29.8242 26.3603C30.0218 25.1915 30.0171 24.0374 29.4811 22.9438C28.8574 21.6711 27.8191 20.8443 26.5284 20.3389C24.8476 19.6808 23.83 18.4565 23.3316 16.7591C23.0372 15.7562 22.9908 14.7298 23.0712 13.6938C23.0769 13.6208 23.0784 13.5475 23.0844 13.4186C22.9742 13.4885 22.907 13.522 22.8503 13.5684C19.966 15.928 18.2927 18.931 18.0463 22.6778C17.9508 24.1305 18.0649 25.5688 18.5379 26.9584C19.0218 28.3801 19.8274 29.5556 21.1786 30.2925C21.3896 30.4075 21.6157 30.4949 21.8355 30.5954C21.8369 30.6236 21.8457 30.6493 21.8382 30.6685C20.8617 33.146 19.8814 35.6219 18.9081 38.1006C18.6255 38.8203 18.3558 39.5452 18.0962 40.2735C18.0263 40.4698 17.9416 40.4807 17.7686 40.4122C16.031 39.7247 14.4566 38.7669 13.0319 37.5615C10.3003 35.2503 8.4888 32.3539 7.56879 28.9025C7.25027 27.7076 7.03954 26.4925 7.07943 25.2455C7.11012 24.2861 7.05181 23.3173 7.16446 22.3683C7.49779 19.5604 8.5166 16.9988 10.1691 14.7056C12.8442 10.9933 16.4501 8.71572 20.9343 7.83006C21.7159 7.6757 22.5068 7.58446 23.3092 7.60966C24.3851 7.64346 25.4624 7.56433 26.5367 7.72861C29.8034 8.2282 32.6872 9.55114 35.1897 11.7052C37.5487 13.7359 39.2154 16.2381 40.205 19.1834C40.7249 20.7305 41.0562 22.3183 41.0172 23.9647C40.9926 25.0019 41.0624 26.0393 40.9035 27.0754C40.6044 29.0262 40.0012 30.8714 39.0691 32.6078C37.7404 35.0829 35.9128 37.1145 33.5927 38.6983C32.5763 39.3921 31.4874 39.9525 30.3454 40.412C30.1687 40.4831 30.1005 40.4428 30.0382 40.2717C29.779 39.5597 29.5074 38.8522 29.2341 38.1261Z" fill="#000101"/>
</g>
</g>
<path d="M68.608 35.224C66.496 35.224 64.5547 34.7333 62.784 33.752C61.0347 32.7707 59.6373 31.4053 58.592 29.656C57.568 27.8853 57.056 25.9013 57.056 23.704C57.056 21.5067 57.568 19.5333 58.592 17.784C59.6373 16.0347 61.0347 14.6693 62.784 13.688C64.5547 12.7067 66.496 12.216 68.608 12.216C70.72 12.216 72.6507 12.7067 74.4 13.688C76.1707 14.6693 77.5573 16.0347 78.56 17.784C79.584 19.5333 80.096 21.5067 80.096 23.704C80.096 25.9013 79.584 27.8853 78.56 29.656C77.536 31.4053 76.1493 32.7707 74.4 33.752C72.6507 34.7333 70.72 35.224 68.608 35.224ZM68.608 30.232C70.4 30.232 71.8293 29.6347 72.896 28.44C73.984 27.2453 74.528 25.6667 74.528 23.704C74.528 21.72 73.984 20.1413 72.896 18.968C71.8293 17.7733 70.4 17.176 68.608 17.176C66.7947 17.176 65.344 17.7627 64.256 18.936C63.1893 20.1093 62.656 21.6987 62.656 23.704C62.656 25.688 63.1893 27.2773 64.256 28.472C65.344 29.6453 66.7947 30.232 68.608 30.232ZM91.2683 35.224C89.6256 35.224 88.1536 34.9573 86.8523 34.424C85.5509 33.8907 84.5056 33.1013 83.7163 32.056C82.9483 31.0107 82.5429 29.752 82.5003 28.28H88.3243C88.4096 29.112 88.6976 29.752 89.1883 30.2C89.6789 30.6267 90.3189 30.84 91.1083 30.84C91.9189 30.84 92.5589 30.6587 93.0283 30.296C93.4976 29.912 93.7323 29.3893 93.7323 28.728C93.7323 28.1733 93.5403 27.7147 93.1563 27.352C92.7936 26.9893 92.3349 26.6907 91.7803 26.456C91.2469 26.2213 90.4789 25.9547 89.4763 25.656C88.0256 25.208 86.8416 24.76 85.9243 24.312C85.0069 23.864 84.2176 23.2027 83.5563 22.328C82.8949 21.4533 82.5643 20.312 82.5643 18.904C82.5643 16.8133 83.3216 15.1813 84.8363 14.008C86.3509 12.8133 88.3243 12.216 90.7563 12.216C93.2309 12.216 95.2256 12.8133 96.7403 14.008C98.2549 15.1813 99.0656 16.824 99.1723 18.936H93.2523C93.2096 18.2107 92.9429 17.6453 92.4523 17.24C91.9616 16.8133 91.3323 16.6 90.5642 16.6C89.9029 16.6 89.3696 16.7813 88.9643 17.144C88.5589 17.4853 88.3563 17.9867 88.3563 18.648C88.3563 19.3733 88.6976 19.9387 89.3802 20.344C90.0629 20.7493 91.1296 21.1867 92.5803 21.656C94.0309 22.1467 95.2043 22.616 96.1003 23.064C97.0176 23.512 97.8069 24.1627 98.4683 25.016C99.1296 25.8693 99.4603 26.968 99.4603 28.312C99.4603 29.592 99.1296 30.7547 98.4683 31.8C97.8283 32.8453 96.8896 33.6773 95.6523 34.296C94.4149 34.9147 92.9536 35.224 91.2683 35.224ZM101.9 23.736C101.9 21.5173 102.38 19.544 103.34 17.816C104.3 16.0667 105.633 14.712 107.34 13.752C109.068 12.7707 111.02 12.28 113.196 12.28C115.862 12.28 118.145 12.984 120.044 14.392C121.942 15.8 123.212 17.72 123.852 20.152H117.836C117.388 19.2133 116.748 18.4987 115.916 18.008C115.105 17.5173 114.177 17.272 113.132 17.272C111.446 17.272 110.081 17.8587 109.036 19.032C107.99 20.2053 107.468 21.7733 107.468 23.736C107.468 25.6987 107.99 27.2667 109.036 28.44C110.081 29.6133 111.446 30.2 113.132 30.2C114.177 30.2 115.105 29.9547 115.916 29.464C116.748 28.9733 117.388 28.2587 117.836 27.32H123.852C123.212 29.752 121.942 31.672 120.044 33.08C118.145 34.4667 115.862 35.16 113.196 35.16C111.02 35.16 109.068 34.68 107.34 33.72C105.633 32.7387 104.3 31.384 103.34 29.656C102.38 27.928 101.9 25.9547 101.9 23.736ZM135.331 35.256C133.581 35.256 132.003 34.8827 130.595 34.136C129.208 33.3893 128.109 32.3227 127.299 30.936C126.509 29.5493 126.115 27.928 126.115 26.072C126.115 24.2373 126.52 22.6267 127.331 21.24C128.141 19.832 129.251 18.7547 130.659 18.008C132.067 17.2613 133.645 16.888 135.395 16.888C137.144 16.888 138.723 17.2613 140.131 18.008C141.539 18.7547 142.648 19.832 143.459 21.24C144.269 22.6267 144.675 24.2373 144.675 26.072C144.675 27.9067 144.259 29.528 143.427 30.936C142.616 32.3227 141.496 33.3893 140.067 34.136C138.659 34.8827 137.08 35.256 135.331 35.256ZM135.331 30.52C136.376 30.52 137.261 30.136 137.987 29.368C138.733 28.6 139.107 27.5013 139.107 26.072C139.107 24.6427 138.744 23.544 138.019 22.776C137.315 22.008 136.44 21.624 135.395 21.624C134.328 21.624 133.443 22.008 132.739 22.776C132.035 23.5227 131.683 24.6213 131.683 26.072C131.683 27.5013 132.024 28.6 132.707 29.368C133.411 30.136 134.285 30.52 135.331 30.52ZM146.49 26.04C146.49 24.2053 146.831 22.5947 147.514 21.208C148.218 19.8213 149.167 18.7547 150.362 18.008C151.556 17.2613 152.89 16.888 154.362 16.888C155.535 16.888 156.602 17.1333 157.562 17.624C158.543 18.1147 159.311 18.776 159.866 19.608V11.32H165.338V35H159.866V32.44C159.354 33.2933 158.618 33.976 157.658 34.488C156.719 35 155.62 35.256 154.362 35.256C152.89 35.256 151.556 34.8827 150.362 34.136C149.167 33.368 148.218 32.2907 147.514 30.904C146.831 29.496 146.49 27.8747 146.49 26.04ZM159.866 26.072C159.866 24.7067 159.482 23.6293 158.714 22.84C157.967 22.0507 157.05 21.656 155.962 21.656C154.874 21.656 153.946 22.0507 153.178 22.84C152.431 23.608 152.058 24.6747 152.058 26.04C152.058 27.4053 152.431 28.4933 153.178 29.304C153.946 30.0933 154.874 30.488 155.962 30.488C157.05 30.488 157.967 30.0933 158.714 29.304C159.482 28.5147 159.866 27.4373 159.866 26.072ZM186.128 25.784C186.128 26.296 186.097 26.8293 186.033 27.384H173.649C173.734 28.4933 174.086 29.3467 174.705 29.944C175.345 30.52 176.123 30.808 177.041 30.808C178.406 30.808 179.355 30.232 179.889 29.08H185.713C185.414 30.2533 184.87 31.3093 184.081 32.248C183.313 33.1867 182.342 33.9227 181.169 34.456C179.995 34.9893 178.683 35.256 177.233 35.256C175.483 35.256 173.926 34.8827 172.561 34.136C171.195 33.3893 170.129 32.3227 169.361 30.936C168.593 29.5493 168.209 27.928 168.209 26.072C168.209 24.216 168.582 22.5947 169.329 21.208C170.097 19.8213 171.163 18.7547 172.529 18.008C173.894 17.2613 175.462 16.888 177.233 16.888C178.961 16.888 180.497 17.2507 181.841 17.976C183.185 18.7013 184.23 19.736 184.977 21.08C185.745 22.424 186.128 23.992 186.128 25.784ZM180.529 24.344C180.529 23.4053 180.209 22.6587 179.569 22.104C178.929 21.5493 178.129 21.272 177.169 21.272C176.251 21.272 175.473 21.5387 174.833 22.072C174.214 22.6053 173.83 23.3627 173.681 24.344H180.529Z" fill="#131315"/>
<defs>
<clipPath id="clip0_10_2">
<rect width="48" height="48" fill="white"/>
</clipPath>
</defs>
</svg>
